<svg id="Layer_1" enable-background="new 0 0 256 256" height="512" viewBox="0 0 256 256" width="512" xmlns="http://www.w3.org/2000/svg"><g><path d="m36.1 24.6h187.3c3.6 0 6.5 2.9 6.5 6.5v215.9c0 3.6-2.9 6.5-6.5 6.5h-187.3c-3.6 0-6.5-2.9-6.5-6.5v-215.9c0-3.6 2.9-6.5 6.5-6.5z" fill="#edf4fc"/><path d="m223.4 24.6h-187.3c-3.6 0-6.5 2.9-6.5 6.5v18h200.3v-18c0-3.6-2.9-6.5-6.5-6.5z" fill="#5290db"/><circle cx="47.6" cy="36.5" fill="#fc657e" r="4.5"/><circle cx="63.5" cy="36.5" fill="#f5c84c" r="4.5"/><circle cx="79.4" cy="36.5" fill="#b2e26d" r="4.5"/><path d="m223.4 256h-187.3c-5 0-9-4-9-9v-215.9c0-5 4-9 9-9h187.3c5 0 9 4 9 9v215.9c0 5-4.1 9-9 9zm-187.3-228.9c-2.2 0-4 1.8-4 4v215.9c0 2.2 1.8 4 4 4h187.3c2.2 0 4-1.8 4-4v-215.9c0-2.2-1.8-4-4-4z"/><path d="m18.4 135.9h-2.1v-2.1c0-1.5-1.3-2.8-2.8-2.8s-2.8 1.3-2.8 2.8v2.1h-2.1c-1.5 0-2.8 1.3-2.8 2.8s1.3 2.8 2.8 2.8h2.1v2.1c0 1.5 1.3 2.8 2.8 2.8s2.8-1.3 2.8-2.8v-2.1h2.1c1.5 0 2.8-1.3 2.8-2.8 0-1.6-1.3-2.8-2.8-2.8z" fill="#f5c84c"/><path d="m228.6 7.9c-4-.7-7.1-3.8-7.9-7.7 0-.1-.1-.2-.2-.1-.1 0-.1.1-.1.1-.8 4-3.9 7-7.9 7.7-.1 0-.2.1-.2.2s.1.1.2.2c4 .7 7.1 3.8 7.9 7.7 0 .1.1.2.2.1.1 0 .1-.1.1-.1.8-4 3.9-7 7.9-7.7.1 0 .2-.1.2-.2-.1-.1-.1-.2-.2-.2z" fill="#fc657e"/><path d="m250.1 193.4c-2.7-.5-4.9-2.6-5.5-5.3 0-.1-.1-.1-.1-.1-.1 0-.1 0-.1.1-.6 2.7-2.7 4.8-5.5 5.3-.1 0-.1.1-.1.1 0 .1 0 .1.1.1 2.7.5 4.9 2.6 5.5 5.3 0 .1.1.1.1.1.1 0 .1 0 .1-.1.6-2.7 2.7-4.8 5.5-5.3 0 .1.1 0 0-.2.1.1 0 .1 0 0z" fill="#70d6f9"/><circle cx="240.7" cy="33" fill="#70d6f9" r="3"/><circle cx="17.7" cy="167" fill="#87d147" r="3"/><circle cx="240.7" cy="219" fill="#f5c84c" r="3"/><path d="m210.2 39h-42c-1.4 0-2.5-1.1-2.5-2.5s1.1-2.5 2.5-2.5h42c1.4 0 2.5 1.1 2.5 2.5s-1.1 2.5-2.5 2.5z"/><path d="m229.9 51.6h-200.3c-1.4 0-2.5-1.1-2.5-2.5v-18c0-5 4-9 9-9h187.3c5 0 9 4 9 9v18c0 1.4-1.2 2.5-2.5 2.5zm-197.8-5h195.3v-15.5c0-2.2-1.8-4-4-4h-187.3c-2.2 0-4 1.8-4 4z"/><path d="m47.6 43.5c-3.9 0-7-3.2-7-7 0-3.9 3.2-7 7-7 3.9 0 7 3.1 7 7 0 3.8-3.1 7-7 7zm0-9.1c-1.1 0-2 .9-2 2s.9 2 2 2 2-.9 2-2-.9-2-2-2z"/><path d="m63.5 43.5c-3.9 0-7-3.2-7-7s3.2-7 7-7c3.9 0 7 3.1 7 7 0 3.8-3.1 7-7 7zm0-9.1c-1.1 0-2 .9-2 2s.9 2 2 2 2-.9 2-2-.9-2-2-2z"/><path d="m79.4 43.5c-3.9 0-7-3.2-7-7s3.2-7 7-7c3.9 0 7 3.1 7 7 0 3.8-3.2 7-7 7zm0-9.1c-1.1 0-2 .9-2 2s.9 2 2 2 2-.9 2-2-.9-2-2-2z"/><path d="m135.8 152.7c-2.3-2.3-2.3-5.9 0-8.2l2.2-2.2h-57.5c-3.2 0-5.8 2.7-5.8 6 0 3.2 2.6 5.8 5.8 5.8h56.7z" fill="#edf4fc"/><g fill="#c7d7e5"><path d="m152.7 100.7c-.2-.2-.3-.4-.5-.6l-34-33.9c-2.1-2.1-5.5-2.2-7.6-.2-.1 0-.1.1-.2.2l-34 33.9c-.2.2-.4.4-.5.6-2.7 3.5-.2 9.1 4 9.1h68.7c4.3 0 6.8-5.5 4.1-9.1z"/><path d="m83.5 109.8v32.6h11.8v-32.6z"/><path d="m108.4 109.8h11.8v32.6h-11.8z"/><path d="m145.1 135.3v-25.5h-11.8v32.6h4.6z"/></g><circle cx="114.2" cy="92.6" fill="#dae6f1" r="6.9"/><path d="m137.2 156.7h-56.7c-4.6-.1-8.3-3.8-8.3-8.5 0-4.6 3.7-8.2 8.3-8.3h57.5c1.4 0 2.5 1.1 2.5 2.5 0 .7-.3 1.3-.7 1.8l-2.2 2.2c-1.3 1.3-1.3 3.4 0 4.6l1.4 1.4c1 1 1 2.6 0 3.5-.5.5-1.1.8-1.8.8zm-56.7-11.8c-1.9 0-3.4 1.6-3.3 3.4 0 1.8 1.5 3.3 3.3 3.3h51.7c-.9-2.2-.7-4.7.3-6.8h-52z"/><path d="m148.7 112.3h-68.7c-2.9-.1-5.5-1.8-6.8-4.4-1.4-2.8-1.1-6.2.8-8.7.2-.3.5-.6.7-.8l34-33.9c3.1-3.1 8.1-3.2 11.2-.1 0 0 .1.1.1.1l34 33.9c.3.3.5.5.7.8 1.9 2.5 2.2 5.9.8 8.7-1.3 2.6-3.9 4.3-6.8 4.4zm-34.4-45.2c-.8 0-1.6.3-2.1.9l-34 33.9c-.1.1-.2.2-.3.4-.7 1-.8 2.3-.2 3.4.4.9 1.3 1.5 2.3 1.6h68.7c1-.1 1.9-.7 2.3-1.6.6-1.1.5-2.4-.2-3.4-.1-.1-.2-.2-.3-.4l-34-33.9c-.6-.6-1.4-.9-2.2-.9z"/><path d="m95.3 144.9h-11.8c-1.4 0-2.5-1.1-2.5-2.5v-32.6c0-1.4 1.1-2.5 2.5-2.5h11.8c1.4 0 2.5 1.1 2.5 2.5v32.6c0 1.4-1.1 2.5-2.5 2.5zm-9.3-5h6.8v-27.6h-6.8z"/><path d="m120.2 144.9h-11.8c-1.4 0-2.5-1.1-2.5-2.5v-32.6c0-1.4 1.1-2.5 2.5-2.5h11.8c1.4 0 2.5 1.1 2.5 2.5v32.6c0 1.4-1.1 2.5-2.5 2.5zm-9.3-5h6.8v-27.6h-6.8z"/><path d="m138 144.9h-4.6c-1.4 0-2.5-1.1-2.5-2.5v-32.6c0-1.4 1.1-2.5 2.5-2.5h11.8c1.4 0 2.5 1.1 2.5 2.5v25.5c0 .7-.3 1.3-.7 1.8l-7.1 7.1c-.6.4-1.3.7-1.9.7zm-2.2-5h1.1l5.7-5.7v-21.9h-6.8z"/><path d="m114.2 101.9c-5.2 0-9.4-4.2-9.4-9.4s4.2-9.4 9.4-9.4 9.4 4.2 9.4 9.4c0 5.3-4.2 9.4-9.4 9.4zm0-13.7c-2.4 0-4.4 2-4.4 4.4s2 4.4 4.4 4.4 4.4-2 4.4-4.4-2-4.4-4.4-4.4z"/><path d="m179.7 100.3 16.1 16.1c2.3 2.3 2.3 5.9 0 8.2l-16.1 16.1c-2.3 2.3-5.9 2.3-8.2 0s-2.3-5.9 0-8.2l6.2-6.2h-18.3c-3.2 0-5.7-2.7-5.7-5.9 0-3.1 2.6-5.7 5.7-5.7h18.3l-6.2-6.2c-2.3-2.3-2.3-5.9 0-8.2s5.9-2.3 8.2 0z" fill="#fc657e"/><path d="m151.9 128.5-16.1 16.1c-2.3 2.3-2.3 5.9 0 8.2l16.1 16.1c2.3 2.3 5.9 2.3 8.2 0s2.3-5.9 0-8.2l-6.2-6.2h18.3c3.2 0 5.7-2.7 5.7-5.9 0-3.1-2.6-5.7-5.7-5.7h-18.3l6.2-6.2c2.3-2.3 2.3-5.9 0-8.2s-6-2.3-8.2 0z" fill="#29589f"/><path d="m151.9 128.5-16.1 16.1c-2.3 2.3-2.3 5.9 0 8.2l16.1 16.1c2.3 2.3 5.9 2.3 8.2 0s2.3-5.9 0-8.2l-6.2-6.2h18.3c3.2 0 5.7-2.7 5.7-5.9 0-3.1-2.6-5.7-5.7-5.7h-18.3l6.2-6.2c2.3-2.3 2.3-5.9 0-8.2s-6-2.3-8.2 0z" fill="#70d6f9"/><path d="m175.6 144.8c-4.6 0-8.3-3.7-8.3-8.3 0-2.2.9-4.3 2.4-5.9l2-2h-12.3c-4.6.1-8.3-3.6-8.4-8.2s3.6-8.3 8.2-8.4h.2 12.3l-2-2c-3.2-3.2-3.2-8.5 0-11.7s8.5-3.2 11.7 0l16.1 16.1c3.2 3.2 3.2 8.5 0 11.7l-16.1 16.1c-1.5 1.8-3.6 2.6-5.8 2.6zm-16.2-27.6c-1.8 0-3.3 1.4-3.3 3.2s1.4 3.3 3.2 3.3h.1 18.3c1.4 0 2.5 1.1 2.5 2.5 0 .7-.3 1.3-.7 1.8l-6.2 6.2c-1.3 1.3-1.3 3.3 0 4.6s3.3 1.3 4.6 0l16.1-16.1c1.3-1.3 1.3-3.4 0-4.6l-16.1-16.1c-1.3-1.3-3.4-1.3-4.6 0s-1.3 3.4 0 4.6l6.2 6.2c1 1 1 2.6 0 3.5-.5.5-1.1.7-1.8.7h-18.3z"/><path d="m156 173c-2.2 0-4.3-.9-5.9-2.4l-16.1-16.1c-3.2-3.2-3.2-8.5 0-11.7l16.1-16.1c3.2-3.2 8.5-3.2 11.7 0s3.2 8.5 0 11.7l-2 2h12.3c4.6.1 8.2 3.8 8.2 8.4 0 4.5-3.7 8.1-8.2 8.2h-12.3l2 2c3.2 3.2 3.2 8.5 0 11.7-1.5 1.4-3.6 2.3-5.8 2.3zm-2.4-42.7-16.1 16.1c-1.3 1.3-1.3 3.4 0 4.6l16.1 16.1c1.3 1.3 3.4 1.3 4.6 0s1.3-3.4 0-4.6l-6.2-6.2c-1-1-1-2.6 0-3.5.5-.5 1.1-.7 1.8-.7h18.3c1.8 0 3.3-1.5 3.2-3.3 0-1.8-1.5-3.2-3.2-3.2h-18.3c-1.4 0-2.5-1.1-2.5-2.5 0-.7.3-1.3.7-1.8l6.2-6.2c1.3-1.3 1.3-3.4 0-4.6s-3.3-1.5-4.6-.2z"/><path d="m156 173c-2.2 0-4.3-.9-5.9-2.4l-16.1-16.1c-3.2-3.2-3.2-8.5 0-11.7l16.1-16.1c3.2-3.2 8.5-3.2 11.7 0s3.2 8.5 0 11.7l-2 2h12.3c4.6.1 8.2 3.8 8.2 8.4 0 4.5-3.7 8.1-8.2 8.2h-12.3l2 2c3.2 3.2 3.2 8.5 0 11.7-1.5 1.4-3.6 2.3-5.8 2.3zm-2.4-42.7-16.1 16.1c-1.3 1.3-1.3 3.4 0 4.6l16.1 16.1c1.3 1.3 3.4 1.3 4.6 0s1.3-3.4 0-4.6l-6.2-6.2c-1-1-1-2.6 0-3.5.5-.5 1.1-.7 1.8-.7h18.3c1.8 0 3.3-1.5 3.2-3.3 0-1.8-1.5-3.2-3.2-3.2h-18.3c-1.4 0-2.5-1.1-2.5-2.5 0-.7.3-1.3.7-1.8l6.2-6.2c1.3-1.3 1.3-3.4 0-4.6s-3.3-1.5-4.6-.2z"/><circle cx="61.2" cy="183.9" fill="#fc657e" r="5.9"/><path d="m61.2 192.3c-4.6 0-8.4-3.8-8.4-8.4s3.8-8.4 8.4-8.4 8.4 3.8 8.4 8.4c0 4.7-3.8 8.4-8.4 8.4zm0-11.7c-1.9 0-3.4 1.5-3.4 3.4s1.5 3.4 3.4 3.4 3.4-1.5 3.4-3.4-1.5-3.4-3.4-3.4z"/><path d="m160.9 186.4h-61.5c-1.4 0-2.5-1.1-2.5-2.5s1.1-2.5 2.5-2.5h61.5c1.4 0 2.5 1.1 2.5 2.5s-1.2 2.5-2.5 2.5z"/><path d="m161.2 199.1h-61.4c-1.4 0-2.5-1.1-2.5-2.5s1.1-2.5 2.5-2.5h61.5c1.4 0 2.5 1.1 2.5 2.5s-1.2 2.5-2.6 2.5z"/><path d="m200.7 186.4h-26.1c-1.4 0-2.5-1.1-2.5-2.5s1.1-2.5 2.5-2.5h26.1c1.4 0 2.5 1.1 2.5 2.5s-1.1 2.5-2.5 2.5z"/><path d="m200.5 199.1h-26.1c-1.4 0-2.5-1.1-2.5-2.5s1.1-2.5 2.5-2.5h26.1c1.4 0 2.5 1.1 2.5 2.5s-1.1 2.5-2.5 2.5z"/><path d="m87.1 186.4h-8.3c-1.4 0-2.5-1.1-2.5-2.5s1.1-2.5 2.5-2.5h8.3c1.4 0 2.5 1.1 2.5 2.5s-1.1 2.5-2.5 2.5z"/><path d="m87 199.1h-8.3c-1.4 0-2.5-1.1-2.5-2.5s1.1-2.5 2.5-2.5h8.3c1.4 0 2.5 1.1 2.5 2.5s-1.1 2.5-2.5 2.5z"/><circle cx="61.2" cy="213.4" fill="#70d6f9" r="5.9"/><path d="m61.2 221.8c-4.6 0-8.4-3.8-8.4-8.4s3.8-8.4 8.4-8.4 8.4 3.8 8.4 8.4c0 4.7-3.8 8.4-8.4 8.4zm0-11.8c-1.9 0-3.4 1.5-3.4 3.4s1.5 3.4 3.4 3.4 3.4-1.5 3.4-3.4c0-1.8-1.5-3.4-3.4-3.4z"/><path d="m160.9 215.9h-61.5c-1.4 0-2.5-1.1-2.5-2.5s1.1-2.5 2.5-2.5h61.5c1.4 0 2.5 1.1 2.5 2.5s-1.2 2.5-2.5 2.5z"/><path d="m161.2 228.6h-61.4c-1.4 0-2.5-1.1-2.5-2.5s1.1-2.5 2.5-2.5h61.5c1.4 0 2.5 1.1 2.5 2.5s-1.2 2.5-2.6 2.5z"/><path d="m200.7 215.9h-26.1c-1.4 0-2.5-1.1-2.5-2.5s1.1-2.5 2.5-2.5h26.1c1.4 0 2.5 1.1 2.5 2.5s-1.1 2.5-2.5 2.5z"/><path d="m200.5 228.6h-26.1c-1.4 0-2.5-1.1-2.5-2.5s1.1-2.5 2.5-2.5h26.1c1.4 0 2.5 1.1 2.5 2.5s-1.1 2.5-2.5 2.5z"/><path d="m87.1 215.9h-8.3c-1.4 0-2.5-1.1-2.5-2.5s1.1-2.5 2.5-2.5h8.3c1.4 0 2.5 1.1 2.5 2.5s-1.1 2.5-2.5 2.5z"/><path d="m87 228.6h-8.3c-1.4 0-2.5-1.1-2.5-2.5s1.1-2.5 2.5-2.5h8.3c1.4 0 2.5 1.1 2.5 2.5s-1.1 2.5-2.5 2.5z"/></g></svg>